<svg width="512" height="512" viewBox="0 0 96 96" fill="none" xmlns="http://www.w3.org/2000/svg">
  <rect width="96" height="96" rx="24" fill="#FAF7F2"/>
  <rect x="10.5" y="6.5" width="75" height="83" rx="30" stroke="#C7A56A" stroke-width="1.5"/>
  <path d="M48 6L50 10L54 12L50 14L48 18L46 14L42 12L46 10L48 6Z" fill="#C7A56A"/>
  <path d="M11 48L13 52L17 54L13 56L11 60L9 56L5 54L9 52L11 48Z" fill="#C7A56A"/>
  <path d="M85 48L87 52L91 54L87 56L85 60L83 56L79 54L83 52L85 48Z" fill="#C7A56A"/>
  <path d="M30 24.5V58.5M30 42.5C36.2 42.5 40.9 39.1 44.6 34.1C48.7 28.6 52 25.5 59.2 25.5C65.7 25.5 69.4 29.8 69.4 35.6C69.4 41.9 65 46.7 58.9 46.7C52.5 46.7 49.6 42.8 45.8 37.9C42.2 33.2 38.3 29.9 31.4 29.9" stroke="#184B38" stroke-width="2.6" stroke-linecap="round" stroke-linejoin="round"/>
  <path d="M33.5 24.5H22.5M33.5 41.5L21.5 58.5M33.5 58.5H22.5" stroke="#184B38" stroke-width="2.6" stroke-linecap="round" stroke-linejoin="round"/>
  <path d="M43 55L50.8 83L58.6 55L66.4 83L74.2 55" stroke="#184B38" stroke-width="2.6" stroke-linecap="round" stroke-linejoin="round"/>
</svg>
