<svg width="512" height="512" viewBox="0 0 96 96" fill="none" xmlns="http://www.w3.org/2000/svg">
  <rect width="96" height="96" rx="24" fill="#FAF7F2"/>
  <rect x="10.5" y="6.5" width="75" height="83" rx="30" stroke="#C7A56A" stroke-width="1.5"/>
  <path d="M48 6L50 10L54 12L50 14L48 18L46 14L42 12L46 10L48 6Z" fill="#C7A56A"/>
  <path d="M11 48L13 52L17 54L13 56L11 60L9 56L5 54L9 52L11 48Z" fill="#C7A56A"/>
  <path d="M85 48L87 52L91 54L87 56L85 60L83 56L79 54L83 52L85 48Z" fill="#C7A56A"/>
  <text x="48" y="41" text-anchor="middle" font-size="20" font-family="Georgia, 'Times New Roman', serif" letter-spacing="1.2" fill="#184B38">CWS</text>
  <path d="M24 57C29 65.8 36.8 70 47.2 70C57.6 70 65.5 65.9 72 57" stroke="#184B38" stroke-width="2.3" stroke-linecap="round"/>
  <path d="M25.5 57H70.5" stroke="#C7A56A" stroke-width="1.2" stroke-linecap="round" stroke-dasharray="2.4 4"/>
</svg>
